<svg width="31" height="30" viewBox="0 0 31 30" fill="none" xmlns="http://www.w3.org/2000/svg">
<path fill-rule="evenodd" clip-rule="evenodd" d="M22.7037 18.25L20.1637 17.96C19.5537 17.89 18.9537 18.1 18.5237 18.53L16.6837 20.37C13.8537 18.93 11.5337 16.62 10.0937 13.78L11.9437 11.93C12.3737 11.5 12.5837 10.9 12.5137 10.29L12.2237 7.77C12.1037 6.76 11.2537 6 10.2337 6H8.50367C7.37367 6 6.43367 6.94 6.50367 8.07C7.03367 16.61 13.8637 23.43 22.3937 23.96C23.5237 24.03 24.4637 23.09 24.4637 21.96V20.23C24.4737 19.22 23.7137 18.37 22.7037 18.25Z" fill="white"/>
</svg>
